<?xml version="1.0" encoding="utf-8"?>
<!-- Generator: Adobe Illustrator 15.0.0, SVG Export Plug-In . SVG Version: 6.00 Build 0)  -->
<!DOCTYPE svg PUBLIC "-//W3C//DTD SVG 1.1//EN" "http://www.w3.org/Graphics/SVG/1.1/DTD/svg11.dtd">
<svg version="1.1" id="Layer_1" xmlns="http://www.w3.org/2000/svg" xmlns:xlink="http://www.w3.org/1999/xlink" x="0px" y="0px"
	 width="595.28px" height="841.89px" viewBox="0 0 595.28 841.89" enable-background="new 0 0 595.28 841.89" xml:space="preserve">
<g>
	<path fill-rule="evenodd" clip-rule="evenodd" fill="#FFFFFF" d="M-57.347,94.89c231.116,0,462.229,0,693.346,0
		c0,227,0,454.001,0,681c-232.666,0-465.333,0-697.999,0c0-222.461,0-444.92,0-667.38C-62.4,102.067-62.769,95.654-57.347,94.89z
		 M477.786,235.63c63.604-2.952,64.241-113.663-4.653-108.96C387.804,132.494,419.911,238.316,477.786,235.63z M40.373,530.73
		C49.657,645.867,145.74,754.129,287,753.19c126.427-0.84,227.288-88.778,241.973-208.84c9.914-81.051-7.223-175.361,0-276.94
		c-181.943-1.962-61.858,251.032-148.906,335.96c-88.116,85.969-267.086,4.727-218.707-140.74
		c25.753-77.436,139.017-101.295,204.747-54.48c8.732,6.22,16.34,23.962,27.92,18.16c-3.317-51.663,2.192-94.714,23.267-122.58
		C222.167,199.673,25.426,345.353,40.373,530.73z"/>
	<path fill-rule="evenodd" clip-rule="evenodd" fill="#1C64BE" d="M473.133,126.67c68.895-4.703,68.258,106.008,4.653,108.96
		C419.911,238.316,387.804,132.494,473.133,126.67z"/>
	<path fill-rule="evenodd" clip-rule="evenodd" fill="#1C64BE" d="M417.293,303.73c-21.074,27.866-26.584,70.917-23.267,122.58
		c-11.58,5.802-19.188-11.94-27.92-18.16c-65.729-46.815-178.993-22.955-204.747,54.48
		c-48.379,145.467,130.591,226.709,218.707,140.74c87.048-84.929-33.037-337.923,148.906-335.96
		c-7.223,101.579,9.914,195.889,0,276.94C514.287,664.412,413.427,752.35,287,753.19C145.74,754.129,49.657,645.867,40.373,530.73
		C25.426,345.353,222.167,199.673,417.293,303.73z"/>
</g>
</svg>
